/* XPM */
static char * D:\Dimecoin\Development\Consensus Upgrade\share\pixmaps\bitcoin16_xpm[] = {
"16 16 19 1",
" 	c None",
".	c #044DA2",
"+	c #024EA2",
"@	c #034EA2",
"#	c #044EA1",
"$	c #034FA2",
"%	c #034DA1",
"&	c #034EA3",
"*	c #034DA2",
"=	c #034EA1",
"-	c #044EA2",
";	c #0751A4",
">	c #0550A3",
",	c #024FA2",
"'	c #044FA1",
")	c #034DA3",
"!	c #0751A3",
"~	c #034FA1",
"{	c #044EA3",
"     .+@@+#     ",
"   @$      $@   ",
"  @%   @@   &@  ",
" @% *@ @@ @@ @= ",
" @ @@$ @@ @@@ @ ",
"# $@-  @@  -@. .",
"- =@  ;@@>  @@ ,",
"@    '@@@@)    @",
"@    '@@@@)    @",
"- =@  !@@>  @@ ,",
"# .@.  @@  .@# .",
" $ @@$ @@ $@@ @ ",
" @& @@ @@ @@ &. ",
"  ~@   @@   &@  ",
"   =@      @.   ",
"     .,@@,{     "};
