/* XPM */
static char * D:\Dimecoin\Development\Consensus Upgrade\share\pixmaps\bitcoin128_xpm[] = {
"128 128 17 1",
" 	c None",
".	c #044EA3",
"+	c #034EA3",
"@	c #034EA2",
"#	c #024FA2",
"$	c #044DA2",
"%	c #034FA2",
"&	c #044EA1",
"*	c #044EA2",
"=	c #044FA1",
"-	c #024EA3",
";	c #024EA2",
">	c #034DA2",
",	c #034EA1",
"'	c #034FA3",
")	c #034DA1",
"!	c #034DA3",
"                                                        .+@#@@@@@@@@#@@.                                                        ",
"                                                  $%@@@@@@@@@@@@@@@@@@@@@@@@@&                                                  ",
"                                              $*@@@@@@@@@@@@@@@@@@@@@@@@@@@@@@@@**                                              ",
"                                           %@@@@@@@@@@@@@@@@@@@@@@@@@@@@@@@@@@@@@@@@@                                           ",
"                                        =@@@@@@@@@@@@@@@@@@@@@@@@@@@@@@@@@@@@@@@@@@@@@@$                                        ",
"                                      @@@@@@@@@@@@@@@@@@@@@@@@@@@@@@@@@@@@@@@@@@@@@@@@@@@+                                      ",
"                                    -@@@@@@@@@@@@@@@@@@@@@@@@@@@@@@@@@@@@@@@@@@@@@@@@@@@@@@;                                    ",
"                                  +@@@@@@@@@@@@@@@@@@@@@@@@@@+@@@@+@@@@@@@@@@@@@@@@@@@@@@@@@@@                                  ",
"                                @@@@@@@@@@@@@@@@@@@@@%*                  *@@@@@@@@@@@@@@@@@@@@@>                                ",
"                              .@@@@@@@@@@@@@@@@@@+                            @@@@@@@@@@@@@@@@@@@*                              ",
"                             @@@@@@@@@@@@@@@@*                                    *@@@@@@@@@@@@@@@@                             ",
"                           =@@@@@@@@@@@@@@@@                                        =@@@@@@@@@@@@@@@@                           ",
"                          ;@@@@@@@@@@@@@*                                              *@@@@@@@@@@@@@;                          ",
"                         @@@@@@@@@@@@@;                                                  +@@@@@@@@@@@@@                         ",
"                       *@@@@@@@@@@@@*                                                      *@@@@@@@@@@@@*                       ",
"                      ,@@@@@@@@@@@@&                           =*$                           @@@@@@@@@@@@+                      ",
"                     '@@@@@@@@@@@@                    *@@@@@@@@@@@@@@@@@;>                    %@@@@@@@@@@@@                     ",
"                    ;@@@@@@@@@@@                      @@@@@@@@@@@@@@@@@@@@%                     >@@@@@@@@@@+                    ",
"                   @@@@@@@@@@@+                       @@@@@@@@@@@@@@@@@@@@%                      ,@@@@@@@@@@&                   ",
"                  *@@@@@@@@@@$             @+         @@@@@@@@@@@@@@@@@@@@%        >$             &@@@@@@@@@@@                  ",
"                 ;@@@@@@@@@@             +@@+         @@@@@@@@@@@@@@@@@@@@%        +@@'             @@@@@@@@@@+                 ",
"                @@@@@@@@@@@            @@@@@+         @@@@@@@@@@@@@@@@@@@@%        +@@@@             @@@@@@@@@@@                ",
"               @@@@@@@@@@@            @@@@@@+         @@@@@@@@@@@@@@@@@@@@%        +@@@@@@            @@@@@@@@@@%               ",
"              *@@@@@@@@@;           -@@@@@@@+         @@@@@@@@@@@@@@@@@@@@%        +@@@@@@@@           ;@@@@@@@@@*              ",
"              @@@@@@@@@;           @@@@@@@@@+         @@@@@@@@@@@@@@@@@@@@%        +@@@@@@@@%           ;@@@@@@@@@              ",
"             @@@@@@@@@@          +@@@@@@@@@@+         @@@@@@@@@@@@@@@@@@@@%        +@@@@@@@@@@           @@@@@@@@@@             ",
"            ;@@@@@@@@@          @@@@@@@@@@@@+         @@@@@@@@@@@@@@@@@@@@%        +@@@@@@@@@@@)          @@@@@@@@@@            ",
"           ,@@@@@@@@@          @@@@@@@@@@@@@+         @@@@@@@@@@@@@@@@@@@@%        +@@@@@@@@@@@@+          @@@@@@@@@=           ",
"           @@@@@@@@@          ,@@@@@@@@@@@@@+         @@@@@@@@@@@@@@@@@@@@%        +@@@@@@@@@@@@@@          @@@@@@@@@           ",
"          @@@@@@@@@$         @@@@@@@@@@@@@@@+         @@@@@@@@@@@@@@@@@@@@%        +@@@@@@@@@@@@@@;         *@@@@@@@@*          ",
"         .@@@@@@@@+         @@@@@@@@@@@@@@@@+         @@@@@@@@@@@@@@@@@@@@%        +@@@@@@@@@@@@@@@@         ,@@@@@@@@          ",
"         @@@@@@@@@         *@@@@@@@@@@@@@@@@+         @@@@@@@@@@@@@@@@@@@@%        +@@@@@@@@@@@@@@@@>         @@@@@@@@@         ",
"        @@@@@@@@@         +@@@@@@@@@@@@@@@@@+         @@@@@@@@@@@@@@@@@@@@%        +@@@@@@@@@@@@@@@@@@         @@@@@@@@+        ",
"        @@@@@@@@+        @@@@@@@@@@@@@@@@@@@+         @@@@@@@@@@@@@@@@@@@@%        +@@@@@@@@@@@@@@@@@@         >@@@@@@@@        ",
"       @@@@@@@@@         @@@@@@@@@@@@@@@@@@@+         @@@@@@@@@@@@@@@@@@@@%        +@@@@@@@@@@@@@@@@@@@         @@@@@@@@@       ",
"       @@@@@@@@         @@@@@@@@@@@@@@@@@@@@+         @@@@@@@@@@@@@@@@@@@@%        +@@@@@@@@@@@@@@@@@@@@         @@@@@@@@       ",
"      -@@@@@@@*        >@@@@@@@@@@@@@@@@@@@@+         @@@@@@@@@@@@@@@@@@@@%        +@@@@@@@@@@@@@@@@@@@@@        *@@@@@@@'      ",
"      @@@@@@@@         @@@@@@@@@@@@@@@@@@@@@+         @@@@@@@@@@@@@@@@@@@@%        +@@@@@@@@@@@@@@@@@@@@@         @@@@@@@@      ",
"     @@@@@@@@;        @@@@@@@@@@@@@@@@@@@@@@          @@@@@@@@@@@@@@@@@@@@%        '@@@@@@@@@@@@@@@@@@@@@@        ;@@@@@@@%     ",
"     @@@@@@@@        )@@@@@@@@@@@@@@@@@@@@@           @@@@@@@@@@@@@@@@@@@@%          @@@@@@@@@@@@@@@@@@@@@         @@@@@@@@     ",
"    *@@@@@@@*        @@@@@@@@@@@@@@@@@@@@@            @@@@@@@@@@@@@@@@@@@@%           @@@@@@@@@@@@@@@@@@@@@        *@@@@@@@=    ",
"    @@@@@@@@        >@@@@@@@@@@@@@@@@@@@@             @@@@@@@@@@@@@@@@@@@@%            @@@@@@@@@@@@@@@@@@@@,        @@@@@@@@    ",
"    @@@@@@@@        @@@@@@@@@@@@@@@@@@@@              @@@@@@@@@@@@@@@@@@@@%             @@@@@@@@@@@@@@@@@@@@        >@@@@@@@    ",
"   +@@@@@@@%       @@@@@@@@@@@@@@@@@@@@               @@@@@@@@@@@@@@@@@@@@%              @@@@@@@@@@@@@@@@@@@&       @@@@@@@@%   ",
"   @@@@@@@@        @@@@@@@@@@@@@@@@@@@                @@@@@@@@@@@@@@@@@@@@%              @@@@@@@@@@@@@@@@@@@@        @@@@@@@@   ",
"   @@@@@@@*       *@@@@@@@@@@@@@@@@@@@                @@@@@@@@@@@@@@@@@@@@@               @@@@@@@@@@@@@@@@@@@        *@@@@@@@   ",
"  $@@@@@@@        @@@@@@@@@@@@@@@@@@@                @@@@@@@@@@@@@@@@@@@@@@;               @@@@@@@@@@@@@@@@@@;        @@@@@@@*  ",
"  *@@@@@@@        @@@@@@@@@@@@@@@@@@               @@@@@@@@@@@@@@@@@@@@@@@@@@              @@@@@@@@@@@@@@@@@@@        @@@@@@@*  ",
"  @@@@@@@@       )@@@@@@@@@@@@@@@@@,              ;@@@@@@@@@@@@@@@@@@@@@@@@@@@)             @@@@@@@@@@@@@@@@@@$       @@@@@@@@  ",
"  @@@@@@@%       @@@@@@@@@@@@@@@@@@              @@@@@@@@@@@@@@@@@@@@@@@@@@@@@@%            $@@@@@@@@@@@@@@@@@&       +@@@@@@@  ",
" $@@@@@@@        @@@@@@@@@@@@@@@@@@             -@@@@@@@@@@@@@@@@@@@@@@@@@@@@@@@&            @@@@@@@@@@@@@@@@@@        @@@@@@@$ ",
" %@@@@@@@        @@@@@@@@@@@@@@@@@             %@@@@@@@@@@@@@@@@@@@@@@@@@@@@@@@@@            @@@@@@@@@@@@@@@@@@        @@@@@@@+ ",
" @@@@@@@@       @@@@@@@@@@@@@@@@@@             @@@@@@@@@@@@@@@@@@@@@@@@@@@@@@@@@@@            @@@@@@@@@@@@@@@@@%       @@@@@@@@ ",
" @@@@@@@@       @@@@@@@@@@@@@@@@@+            @@@@@@@@@@@@@@@@@@@@@@@@@@@@@@@@@@@@)           @@@@@@@@@@@@@@@@@@       @@@@@@@@ ",
" @@@@@@@*       @@@@@@@@@@@@@@@@@            -@@@@@@@@@@@@@@@@@@@@@@@@@@@@@@@@@@@@@            @@@@@@@@@@@@@@@@@       =@@@@@@@ ",
" @@@@@@@        @@@@@@@@@@@@@@@@@            @@@@@@@@@@@@@@@@@@@@@@@@@@@@@@@@@@@@@@%           @@@@@@@@@@@@@@@@@        @@@@@@@ ",
".@@@@@@@       *@@@@@@@@@@@@@@@@@            @@@@@@@@@@@@@@@@@@@@@@@@@@@@@@@@@@@@@@@           @@@@@@@@@@@@@@@@@        @@@@@@@.",
"+@@@@@@@       %@@@@@@@@@@@@@@@@@           @@@@@@@@@@@@@@@@@@@@@@@@@@@@@@@@@@@@@@@@           @@@@@@@@@@@@@@@@@!       @@@@@@@,",
"@@@@@@@@       +@@@@@@@@@@@@@@@@            @@@@@@@@@@@@@@@@@@@@@@@@@@@@@@@@@@@@@@@@,          $@@@@@@@@@@@@@@@@@       @@@@@@@@",
";@@@@@@@        ================            @@@@@@@@@@@@@@@@@@@@@@@@@@@@@@@@@@@@@@@@@           @@@@@@@@@@@@@@@@)       %@@@@@@;",
"@@@@@@@&                                    @@@@@@@@@@@@@@@@@@@@@@@@@@@@@@@@@@@@@@@@@                                   ;@@@@@@@",
"@@@@@@@;                                   %@@@@@@@@@@@@@@@@@@@@@@@@@@@@@@@@@@@@@@@@@                                   >@@@@@@@",
"@@@@@@@@                                   @@@@@@@@@@@@@@@@@@@@@@@@@@@@@@@@@@@@@@@@@@                                   @@@@@@@@",
"@@@@@@@@                                   @@@@@@@@@@@@@@@@@@@@@@@@@@@@@@@@@@@@@@@@@@                                   ,@@@@@@@",
"@@@@@@@@                                   +@@@@@@@@@@@@@@@@@@@@@@@@@@@@@@@@@@@@@@@@@                                   ,@@@@@@@",
"@@@@@@@@                                   @@@@@@@@@@@@@@@@@@@@@@@@@@@@@@@@@@@@@@@@@@                                   @@@@@@@@",
"@@@@@@@;                                   %@@@@@@@@@@@@@@@@@@@@@@@@@@@@@@@@@@@@@@@@@                                   >@@@@@@@",
",@@@@@@&                                    @@@@@@@@@@@@@@@@@@@@@@@@@@@@@@@@@@@@@@@@@                                   ;@@@@@@@",
"#@@@@@@@        ================            @@@@@@@@@@@@@@@@@@@@@@@@@@@@@@@@@@@@@@@@@           ================        @@@@@@@;",
">@@@@@@@       +@@@@@@@@@@@@@@@@            @@@@@@@@@@@@@@@@@@@@@@@@@@@@@@@@@@@@@@@@@          -@@@@@@@@@@@@@@@@@       @@@@@@@@",
"+@@@@@@@       %@@@@@@@@@@@@@@@@+           @@@@@@@@@@@@@@@@@@@@@@@@@@@@@@@@@@@@@@@@           +@@@@@@@@@@@@@@@@%       @@@@@@@,",
".@@@@@@@       .@@@@@@@@@@@@@@@@@            @@@@@@@@@@@@@@@@@@@@@@@@@@@@@@@@@@@@@@@           @@@@@@@@@@@@@@@@@&       @@@@@@@*",
" @@@@@@@        @@@@@@@@@@@@@@@@@            >@@@@@@@@@@@@@@@@@@@@@@@@@@@@@@@@@@@@@@           @@@@@@@@@@@@@@@@@        @@@@@@@ ",
" @@@@@@@.       @@@@@@@@@@@@@@@@@             @@@@@@@@@@@@@@@@@@@@@@@@@@@@@@@@@@@@@            @@@@@@@@@@@@@@@@@       *@@@@@@@ ",
" @@@@@@@@       @@@@@@@@@@@@@@@@@@            @@@@@@@@@@@@@@@@@@@@@@@@@@@@@@@@@@@@@           '@@@@@@@@@@@@@@@@@       @@@@@@@@ ",
" @@@@@@@@       @@@@@@@@@@@@@@@@@@             @@@@@@@@@@@@@@@@@@@@@@@@@@@@@@@@@@@            @@@@@@@@@@@@@@@@@@       @@@@@@@@ ",
" @@@@@@@@        @@@@@@@@@@@@@@@@@             ,@@@@@@@@@@@@@@@@@@@@@@@@@@@@@@@@@            $@@@@@@@@@@@@@@@@@        @@@@@@@@ ",
" &@@@@@@@        @@@@@@@@@@@@@@@@@@             ;@@@@@@@@@@@@@@@@@@@@@@@@@@@@@@@             @@@@@@@@@@@@@@@@@@        @@@@@@@* ",
"  @@@@@@@+       @@@@@@@@@@@@@@@@@@              @@@@@@@@@@@@@@@@@@@@@@@@@@@@@@@             @@@@@@@@@@@@@@@@@@       @@@@@@@@  ",
"  @@@@@@@@       @@@@@@@@@@@@@@@@@@,              -@@@@@@@@@@@@@@@@@@@@@@@@@@@$             @@@@@@@@@@@@@@@@@@'       @@@@@@@@  ",
"  *@@@@@@@        @@@@@@@@@@@@@@@@@@               @@@@@@@@@@@@@@@@@@@@@@@@@@               @@@@@@@@@@@@@@@@@@        @@@@@@@;  ",
"  &@@@@@@@        @@@@@@@@@@@@@@@@@@@                @@@@@@@@@@@@@@@@@@@@@@;               @@@@@@@@@@@@@@@@@@@       -@@@@@@@=  ",
"   @@@@@@@&       $@@@@@@@@@@@@@@@@@@%                @@@@@@@@@@@@@@@@@@@@@               @@@@@@@@@@@@@@@@@@@        *@@@@@@@   ",
"   @@@@@@@@        @@@@@@@@@@@@@@@@@@@                @@@@@@@@@@@@@@@@@@@@%              &@@@@@@@@@@@@@@@@@@@        @@@@@@@@   ",
"   @@@@@@@@@       +@@@@@@@@@@@@@@@@@@@               @@@@@@@@@@@@@@@@@@@@%              @@@@@@@@@@@@@@@@@@@@       @@@@@@@@@   ",
"    @@@@@@@@        @@@@@@@@@@@@@@@@@@@@              @@@@@@@@@@@@@@@@@@@@%             @@@@@@@@@@@@@@@@@@@@        >@@@@@@@    ",
"    @@@@@@@@        @@@@@@@@@@@@@@@@@@@@@             @@@@@@@@@@@@@@@@@@@@%            @@@@@@@@@@@@@@@@@@@@+        @@@@@@@@    ",
"    =@@@@@@@@        @@@@@@@@@@@@@@@@@@@@@            @@@@@@@@@@@@@@@@@@@@%           @@@@@@@@@@@@@@@@@@@@@        &@@@@@@@$    ",
"     @@@@@@@@        )@@@@@@@@@@@@@@@@@@@@@           @@@@@@@@@@@@@@@@@@@@%          @@@@@@@@@@@@@@@@@@@@@@        @@@@@@@@     ",
"     >@@@@@@@;        @@@@@@@@@@@@@@@@@@@@@@          @@@@@@@@@@@@@@@@@@@@%         @@@@@@@@@@@@@@@@@@@@@@        #@@@@@@@>     ",
"      @@@@@@@@         @@@@@@@@@@@@@@@@@@@@@+         @@@@@@@@@@@@@@@@@@@@%        +@@@@@@@@@@@@@@@@@@@@@         @@@@@@@@      ",
"      ;@@@@@@@*        '@@@@@@@@@@@@@@@@@@@@+         @@@@@@@@@@@@@@@@@@@@%        +@@@@@@@@@@@@@@@@@@@@@        @@@@@@@@@      ",
"       @@@@@@@@         @@@@@@@@@@@@@@@@@@@@+         @@@@@@@@@@@@@@@@@@@@%        +@@@@@@@@@@@@@@@@@@@@        -@@@@@@@@       ",
"       >@@@@@@@@         @@@@@@@@@@@@@@@@@@@+         @@@@@@@@@@@@@@@@@@@@%        +@@@@@@@@@@@@@@@@@@@         @@@@@@@@@       ",
"        @@@@@@@@,        $@@@@@@@@@@@@@@@@@@+         @@@@@@@@@@@@@@@@@@@@%        +@@@@@@@@@@@@@@@@@@.        >@@@@@@@@        ",
"        >@@@@@@@@         @@@@@@@@@@@@@@@@@@+         @@@@@@@@@@@@@@@@@@@@%        +@@@@@@@@@@@@@@@@@>         @@@@@@@@,        ",
"         @@@@@@@@@         ;@@@@@@@@@@@@@@@@+         @@@@@@@@@@@@@@@@@@@@%        +@@@@@@@@@@@@@@@@*         >@@@@@@@@         ",
"         *@@@@@@@@,         @@@@@@@@@@@@@@@@+         @@@@@@@@@@@@@@@@@@@@%        +@@@@@@@@@@@@@@@,         @@@@@@@@@          ",
"          @@@@@@@@@=         @@@@@@@@@@@@@@@+         @@@@@@@@@@@@@@@@@@@@%        +@@@@@@@@@@@@@@,         &@@@@@@@@;          ",
"           @@@@@@@@@          @@@@@@@@@@@@@@+         @@@@@@@@@@@@@@@@@@@@%        +@@@@@@@@@@@@@@          @@@@@@@@@           ",
"           &@@@@@@@@@          @@@@@@@@@@@@@+         @@@@@@@@@@@@@@@@@@@@%        +@@@@@@@@@@@@*          @@@@@@@@@=           ",
"            ;@@@@@@@@@          +@@@@@@@@@@@+         @@@@@@@@@@@@@@@@@@@@%        +@@@@@@@@@@@@          @@@@@@@@@,            ",
"             @@@@@@@@@@          @@@@@@@@@@@+         @@@@@@@@@@@@@@@@@@@@%        +@@@@@@@@@@%          %@@@@@@@@@             ",
"              @@@@@@@@@;           @@@@@@@@@+         @@@@@@@@@@@@@@@@@@@@%        +@@@@@@@@@           ;@@@@@@@@@              ",
"              *@@@@@@@@@;           ;@@@@@@@+         @@@@@@@@@@@@@@@@@@@@%        +@@@@@@@@           ;@@@@@@@@@*              ",
"               >@@@@@@@@@@            @@@@@@+         @@@@@@@@@@@@@@@@@@@@%        +@@@@@@&           @@@@@@@@@@@               ",
"                @@@@@@@@@@>            @@@@@+         @@@@@@@@@@@@@@@@@@@@%        +@@@@%            @@@@@@@@@@@                ",
"                 +@@@@@@@@@@             @@@+         @@@@@@@@@@@@@@@@@@@@%        +@@@             @@@@@@@@@@@                 ",
"                  *@@@@@@@@@@$             @+         @@@@@@@@@@@@@@@@@@@@%        ++             =@@@@@@@@@@@                  ",
"                   &@@@@@@@@@@,                       @@@@@@@@@@@@@@@@@@@@%                      @@@@@@@@@@@&                   ",
"                    +@@@@@@@@@@>                      @@@@@@@@@@@@@@@@@@@@%                     @@@@@@@@@@@@                    ",
"                     @@@@@@@@@@@@@                    *@@@@@@@@@@@@@@@@@;@                    @@@@@@@@@@@@@                     ",
"                      @@@@@@@@@@@@@&                           =..                           @@@@@@@@@@@@@                      ",
"                       *@@@@@@@@@@@@*                                                      @@@@@@@@@@@@@*                       ",
"                         @@@@@@@@@@@@@#                                                  ;@@@@@@@@@@@@@                         ",
"                          @@@@@@@@@@@@@@&                                              @@@@@@@@@@@@@@@                          ",
"                           &@@@@@@@@@@@@@@@%                                        $@@@@@@@@@@@@@@@$                           ",
"                             ;@@@@@@@@@@@@@@@&                                   -@@@@@@@@@@@@@@@@;                             ",
"                               @@@@@@@@@@@@@@@@@@@                            @@@@@@@@@@@@@@@@@@@&                              ",
"                                +@@@@@@@@@@@@@@@@@@@@>=                  =>@@@@@@@@@@@@@@@@@@@@,                                ",
"                                  @@@@@@@@@@@@@@@@@@@@@@@@@@;@@++@@;@@@@@@@@@@@@@@@@@@@@@@@@@,                                  ",
"                                    @@@@@@@@@@@@@@@@@@@@@@@@@@@@@@@@@@@@@@@@@@@@@@@@@@@@@@@>                                    ",
"                                      %@@@@@@@@@@@@@@@@@@@@@@@@@@@@@@@@@@@@@@@@@@@@@@@@@@@                                      ",
"                                         @@@@@@@@@@@@@@@@@@@@@@@@@@@@@@@@@@@@@@@@@@@@@@=                                        ",
"                                           %@@@@@@@@@@@@@@@@@@@@@@@@@@@@@@@@@@@@@@@@)                                           ",
"                                              .*@@@@@@@@@@@@@@@@@@@@@@@@@@@@@@@@;*                                              ",
"                                                  $+@@@@@@@@@@@@@@@@@@@@@@@@@$                                                  ",
"                                                        .>@;@@@@@@@@;@@.                                                        "};
