<svg xmlns="http://www.w3.org/2000/svg" viewBox="0 0 250 250">
  <defs>
    <style>
      .cls-1 {
        fill: #034ea2;
      }
    </style>
  </defs>
  <g id="Layer_4" data-name="Layer 4">
    <g>
      <path class="cls-1" d="M125,0A125,125,0,1,0,250,125,124.99984,124.99984,0,0,0,125,0Zm0,241.66667A116.66667,116.66667,0,1,1,241.66667,125,116.79887,116.79887,0,0,1,125,241.66667Z"/>
      <path class="cls-1" d="M87.5,75V36.83345a95.73372,95.73372,0,0,0-57.958,79.83322H63.0839A62.35886,62.35886,0,0,1,87.5,75Z"/>
      <path class="cls-1" d="M186.9161,116.66667H220.459A95.7366,95.7366,0,0,0,162.5,36.83345V75A62.35886,62.35886,0,0,1,186.9161,116.66667Z"/>
      <path class="cls-1" d="M63.0839,133.33333H29.542A95.73372,95.73372,0,0,0,87.5,213.16655V175A62.35886,62.35886,0,0,1,63.0839,133.33333Z"/>
      <path class="cls-1" d="M162.5,175v38.16655a95.7366,95.7366,0,0,0,57.959-79.83322H186.9161A62.35886,62.35886,0,0,1,162.5,175Z"/>
      <path class="cls-1" d="M145.83333,88.95315V31.45828a95.84509,95.84509,0,0,0-41.66666,0V88.95315a41.60167,41.60167,0,0,0,0,72.0937v57.49487a95.84509,95.84509,0,0,0,41.66666,0V161.04685a41.60167,41.60167,0,0,0,0-72.0937Z"/>
    </g>
  </g>
</svg>
